<svg width="416" height="359" viewBox="0 0 416 359" fill="none" xmlns="http://www.w3.org/2000/svg">
<path d="M85.279 281.562C62.7258 281.562 39.9965 272.928 39.9965 272.928V333.011C39.9965 333.011 61.14 350.102 82.9884 350.102C106.246 350.102 130.561 333.011 130.561 333.011V272.928C130.561 272.928 108.008 281.562 85.279 281.562ZM112.413 322.44C104.484 327.197 93.0316 332.659 82.9884 332.659C74.3548 332.659 64.664 327.549 58.1447 323.144C58.1447 315.392 58.1447 306.582 58.1447 291.958C66.4259 293.72 75.7644 295.129 85.279 295.129C94.7936 295.129 104.308 293.72 112.413 291.958C112.413 306.406 112.413 314.511 112.413 322.44Z" fill="#142F4D"/>
<path d="M78.4074 0C38.2346 0 0 0 0 0L39.9966 287.377C39.9966 287.377 65.3689 296.01 89.1554 296.01C110.475 296.01 130.562 287.377 130.562 287.377L170.558 0C170.734 0 123.161 0 78.4074 0ZM114.88 274.338C108.361 276.276 98.8462 278.567 89.5078 278.567C77.5265 278.391 64.6641 275.924 55.8543 273.633C53.0352 254.252 24.6675 50.3922 20.0864 17.4435C42.2872 17.4435 78.4074 17.4435 78.4074 17.4435C78.4074 17.4435 126.157 17.4435 150.648 17.4435C146.067 50.3922 117.347 256.366 114.88 274.338Z" fill="#142F4D"/>
<path d="M169.325 302.882V216.722L164.92 202.097L153.82 193.111V302.706L169.325 302.882Z" fill="#142F4D"/>
<path d="M336.183 278.567C336.183 274.162 332.659 270.462 328.078 270.462C326.668 270.462 325.611 270.814 324.378 271.519C280.505 282.443 242.799 272.752 237.865 271.343C236.808 270.814 235.751 270.462 234.341 270.462C229.936 270.462 226.236 273.986 226.236 278.567C226.236 282.443 229.055 285.438 232.756 286.319C283.676 300.591 330.192 286.319 330.192 286.319L330.016 286.143C333.54 285.086 336.183 282.267 336.183 278.567Z" fill="#142F4D"/>
<path d="M170.911 191.878C192.054 191.878 209.145 197.692 209.145 204.916C209.145 212.141 192.054 217.955 170.911 217.955V191.878Z" fill="#142F4D"/>
<path d="M415.648 192.231C414.767 162.101 356.622 137.61 284.734 137.61C212.493 137.61 153.82 162.277 153.82 192.935C153.82 223.417 212.493 248.261 284.734 248.261C334.95 248.261 378.118 236.28 400.142 218.66V302.882H416V191.878L415.648 192.231ZM284.734 230.994C222.008 230.994 171.087 213.55 171.087 191.878C171.087 170.382 222.008 152.763 284.734 152.763C347.46 152.763 398.38 170.206 398.38 191.878C398.38 213.55 347.46 230.994 284.734 230.994Z" fill="#142F4D"/>
<path d="M399.966 302.882C398.557 324.025 346.402 341.116 284.557 341.116C222.712 341.116 170.734 324.025 169.325 302.882H153.82C153.82 333.364 212.493 358.208 284.734 358.208C357.15 358.208 415.648 333.54 415.824 302.882H399.966Z" fill="#142F4D"/>
</svg>
