<svg width="60" height="67" viewBox="0 0 60 67" fill="none" xmlns="http://www.w3.org/2000/svg">
<path d="M45.8622 0.812256C46.7882 1.22828 47.6853 1.58514 48.2931 2.37281C49.0141 3.30713 49.2625 4.31093 49.1471 5.47957C49.0205 6.76306 48.2892 7.64996 47.4051 8.49397C45.5388 10.276 43.6752 12.0608 41.7936 13.8606C42.5701 14.5988 43.3276 15.3409 44.1107 16.0574C44.8522 16.7359 44.8224 17.4786 44.1297 18.1268C43.1317 19.0605 42.1386 19.9998 41.1706 20.9616C40.4667 21.6611 39.6652 21.6597 38.961 20.9401C38.2344 20.1977 37.4674 19.4915 36.6532 18.7072C36.4107 18.9671 36.1916 19.2263 35.9466 19.4611C27.9298 27.1414 19.909 34.8178 11.8955 42.5011C11.4111 42.9657 10.9099 43.236 10.1789 43.2046C8.83035 43.1466 7.47739 43.1888 6.12612 43.1878C5.35522 43.1872 4.86656 42.761 4.85979 42.0411C4.84676 40.6415 4.82003 39.2402 4.88043 37.843C4.89617 37.477 5.12527 37.0407 5.40159 36.775C13.5456 28.9469 21.7078 21.136 29.8688 13.3241C30.0405 13.1598 30.2324 13.015 30.4776 12.8084C29.6364 12.0042 28.8419 11.2479 28.0512 10.4878C27.4532 9.9129 27.3165 9.24413 27.8806 8.66808C29.0084 7.51679 30.2078 6.42617 31.4261 5.36128C31.9075 4.94054 32.5864 5.04258 33.0578 5.48734C33.8771 6.26031 34.6821 7.04705 35.5261 7.85983C35.6902 7.71921 35.8395 7.60352 35.9745 7.47423C37.9024 5.63119 39.7972 3.75465 41.7757 1.96284C42.3095 1.47933 43.096 1.2515 43.7821 0.859279C44.4652 0.812256 45.1327 0.812256 45.8622 0.812256ZM21.9346 24.2271C17.1738 28.7862 12.4121 33.3441 7.65742 37.909C7.48483 38.0747 7.27925 38.3024 7.2669 38.5108C7.22054 39.2875 7.24845 40.0681 7.24845 40.8975C8.04609 40.8975 8.79448 40.8736 9.53999 40.9069C9.95116 40.9252 10.2249 40.7932 10.5117 40.5179C18.4916 32.8632 26.4803 25.2171 34.4723 17.5744C34.6251 17.4283 34.8368 17.3385 35.0063 17.2315C33.9564 16.2339 33.0366 15.3602 32.1112 14.4809C28.7659 17.6847 25.3835 20.9241 21.9346 24.2271ZM31.1036 8.83022C30.8532 8.99996 30.6028 9.1697 30.4226 9.29187C33.7581 12.4838 36.9449 15.5335 40.2144 18.6624C40.4197 18.4352 40.6432 18.1438 40.9143 17.9008C41.1979 17.6464 41.5271 17.4386 41.8364 17.2105C41.649 17.0302 41.639 17.0103 41.6238 16.9956C40.9364 16.3352 40.2488 15.6752 39.5608 15.0155C38.6507 14.1425 38.6501 13.5689 39.5606 12.6966C41.7666 10.5831 43.9733 8.47051 46.1787 6.35659C47.2217 5.35692 46.9256 4.19983 46.2606 3.61815C45.4451 2.90462 44.3322 2.73256 43.3686 3.68384C41.2114 5.81306 38.9847 7.87763 36.8117 9.99251C35.9601 10.8216 35.1437 10.8432 34.3158 9.99963C33.6082 9.27892 32.8728 8.58329 32.1106 7.83798C31.7522 8.19219 31.4617 8.47925 31.1036 8.83022Z" fill="#142F4D"/>
<path d="M32.1466 66.0227C30.9018 65.5668 29.9552 64.8908 29.6414 63.6346C29.5919 63.4364 29.5508 63.2304 29.5507 63.028C29.5463 53.4651 29.5442 43.9019 29.5496 34.3388C29.5505 32.8994 30.9045 31.4848 32.4652 31.3683C33.2975 31.3062 34.1324 31.2634 34.9667 31.2424C35.8079 31.2212 36.65 31.2379 37.559 31.2379C37.559 29.4963 37.5588 27.7901 37.559 26.0841C37.5591 25.19 37.9698 24.7694 38.918 24.767C42.5899 24.7576 46.2618 24.7594 49.9337 24.766C50.818 24.7676 51.3089 25.2659 51.3116 26.1371C51.3166 27.8078 51.3131 29.4785 51.3131 31.2379C52.3583 31.2379 53.3936 31.2215 54.4283 31.2432C55.174 31.2591 55.9397 31.2354 56.6588 31.389C57.9405 31.6628 59.1415 32.8223 59.1945 34.1452C59.2238 34.8749 59.3187 35.6037 59.3194 36.3329C59.3283 45.0075 59.3282 53.6819 59.3224 62.3563C59.3212 63.8989 58.7023 65.1194 57.1874 65.8293C57.0737 65.8825 56.9403 65.8982 56.8021 65.977C48.595 66.0227 40.4021 66.0227 32.1466 66.0227ZM38.6515 33.523C36.9386 33.523 35.2256 33.5176 33.5128 33.5249C32.4576 33.5295 31.952 33.9358 31.9518 34.7722C31.9498 44.0565 31.9498 53.3409 31.9518 62.6254C31.9518 63.3639 32.3398 63.7359 33.1121 63.7363C40.6534 63.7384 48.1947 63.733 55.7359 63.7466C56.298 63.7476 56.5982 63.4647 56.7711 63.0528C56.8952 62.7573 56.915 62.4078 56.9156 62.0824C56.9248 58.2966 56.9216 54.511 56.9216 50.7253C56.9216 45.5649 56.9226 40.4045 56.92 35.2442C56.9197 34.7219 56.8979 34.1597 56.3835 33.862C56.0375 33.6615 55.5852 33.5458 55.1771 33.5375C53.465 33.5029 51.7517 33.5272 50.0386 33.5209C49.3036 33.5183 48.9216 33.1453 48.9104 32.4435C48.9048 32.0924 48.9094 31.7411 48.9094 31.3422C48.1111 31.3422 47.3882 31.3422 46.6781 31.3422C46.6781 30.5626 46.6781 29.8341 46.6781 29.0562C47.4385 29.0562 48.1612 29.0562 48.8703 29.0562C48.8703 28.3613 48.8703 27.7175 48.8703 27.0848C45.8845 27.0848 42.938 27.0848 40.0011 27.0848C40.0011 27.7655 40.0011 28.4092 40.0011 29.1023C41.8738 29.1023 43.7084 29.1023 45.5326 29.1023C45.5326 29.8812 45.5326 30.6096 45.5326 31.3859C43.6588 31.3859 41.8231 31.3859 39.9625 31.3859C39.9625 31.6856 39.9755 31.9377 39.9601 32.1884C39.9073 33.0464 39.5077 33.4905 38.6515 33.523Z" fill="#142F4D"/>
<path d="M9.07087 51.842C9.69101 53.5067 10.3101 55.1192 10.8587 56.7535C11.4259 58.4428 10.9781 59.9355 9.8042 61.2844C8.33568 62.9718 5.84549 63.3807 3.86512 62.4886C2.23246 61.753 1.21977 60.4749 0.984238 58.6357C0.797436 57.1773 1.43737 55.958 1.88187 54.6815C2.57172 52.7004 3.36207 50.7512 4.11791 48.7915C4.37189 48.1333 4.64431 47.4815 4.92062 46.8315C5.124 46.3537 5.50336 46.0889 6.04837 46.1228C6.54938 46.1538 6.93771 46.3498 7.12789 46.8529C7.75277 48.5059 8.40014 50.1511 9.07087 51.842ZM6.30454 60.5839C6.51503 60.5402 6.73568 60.5216 6.93466 60.4487C7.86952 60.1056 8.92333 58.9139 8.56749 57.7465C8.32011 56.9351 8.04786 56.1297 7.75412 55.3326C7.2059 53.8444 6.63381 52.3642 6.01046 50.7192C5.15801 52.9703 4.37713 55.0592 3.57578 57.1407C2.84549 59.0375 4.45277 60.7331 6.30454 60.5839Z" fill="#142F4D"/>
<path d="M54.5666 48.428C54.5666 52.4102 54.5669 56.3292 54.5662 60.2479C54.5662 60.941 54.1969 61.3174 53.4915 61.3256C52.7583 61.3342 52.0251 61.3276 51.2456 61.3276C51.2456 60.5776 51.2456 59.8363 51.2456 59.0683C51.5507 59.0683 51.8478 59.0683 52.1901 59.0683C52.1901 52.2753 52.1901 45.5078 52.1901 38.7154C47.1255 38.7154 42.0669 38.7154 36.9811 38.7154C36.9811 45.4895 36.9811 52.2416 36.9811 59.0426C41.0204 59.0426 45.0434 59.0426 49.0967 59.0426C49.0967 59.8169 49.0967 60.5424 49.0967 61.3276C48.8776 61.3276 48.6688 61.3276 48.46 61.3276C44.2744 61.3276 40.0886 61.3277 35.903 61.3274C34.9666 61.3272 34.6229 60.9855 34.6229 60.0557C34.6228 52.6394 34.6228 45.223 34.6229 37.8067C34.6229 36.8418 35.0539 36.4154 36.0508 36.4151C41.7899 36.4128 47.5292 36.4166 53.2683 36.4109C54.0327 36.4101 54.6011 36.84 54.5887 37.6832C54.5363 41.2431 54.5666 44.8043 54.5666 48.428Z" fill="#142F4D"/>
</svg>
