<svg width="273" height="49" viewBox="0 0 273 49" fill="none" xmlns="http://www.w3.org/2000/svg">
<g clip-path="url(#clip0_125_28)">
<path d="M39.6041 0.713623H5.32828C1.81459 0.713623 -1.03381 3.5535 -1.03381 7.05667V43.3706C-1.03381 46.8737 1.81459 49.7136 5.32828 49.7136H39.6041C43.1178 49.7136 45.9662 46.8737 45.9662 43.3706V7.05667C45.9662 3.5535 43.1178 0.713623 39.6041 0.713623Z" fill="#AFD7E3"/>
<path d="M30.4244 4.12305C30.9676 4.37747 31.4938 4.59571 31.8504 5.07743C32.2734 5.64883 32.419 6.26271 32.3514 6.97742C32.2771 7.76234 31.8481 8.3047 31.3295 8.82094C30.2346 9.91068 29.1415 11.0022 28.0377 12.103C28.4932 12.5545 28.9376 13.0083 29.397 13.4465C29.832 13.8614 29.8144 14.3156 29.408 14.712C28.8226 15.283 28.2402 15.8574 27.6724 16.4457C27.2594 16.8734 26.7891 16.8726 26.3761 16.4325C25.9499 15.9785 25.4999 15.5467 25.0224 15.067C24.8801 15.2259 24.7515 15.3845 24.6078 15.528C19.9052 20.2249 15.2002 24.9196 10.4995 29.6184C10.2152 29.9026 9.92124 30.0679 9.49243 30.0487C8.70139 30.0133 7.90771 30.0391 7.11516 30.0384C6.66287 30.0381 6.37619 29.7774 6.37226 29.3372C6.36463 28.4812 6.3489 27.6243 6.38434 26.7698C6.39362 26.5459 6.52801 26.2791 6.69009 26.1167C11.4674 21.3292 16.2553 16.5524 21.0426 11.7748C21.1433 11.6744 21.256 11.5859 21.3997 11.4594C20.9063 10.9677 20.4402 10.5051 19.9764 10.0403C19.6256 9.68867 19.5453 9.2797 19.8763 8.92743C20.5379 8.22326 21.2415 7.55631 21.9561 6.90512C22.2386 6.64777 22.6367 6.71017 22.9132 6.98215C23.3939 7.45489 23.8661 7.93607 24.3611 8.43314C24.4575 8.34715 24.545 8.27631 24.6243 8.19729C25.7552 7.07014 26.8667 5.92251 28.0272 4.8267C28.3404 4.53101 28.8018 4.39167 29.2042 4.1518C29.6049 4.12305 29.9964 4.12305 30.4244 4.12305ZM16.3883 18.4428C13.5957 21.2309 10.8024 24.0184 8.01332 26.8101C7.91209 26.9115 7.79153 27.0507 7.78429 27.1782C7.75709 27.6531 7.77339 28.1305 7.77339 28.6377C8.24133 28.6377 8.68031 28.6231 9.11763 28.6435C9.35891 28.6548 9.51947 28.574 9.68775 28.4056C14.3687 23.7243 19.0549 19.0482 23.7431 14.3742C23.8327 14.2848 23.9568 14.23 24.0563 14.1646C23.4404 13.5544 22.9009 13.02 22.358 12.4823C20.3956 14.4417 18.4115 16.4228 16.3883 18.4428ZM21.767 9.02661C21.6201 9.1304 21.4732 9.23419 21.3674 9.30888C23.324 11.261 25.1935 13.126 27.1114 15.0396C27.2319 14.9007 27.3629 14.7223 27.5219 14.5738C27.6883 14.4182 27.8814 14.2911 28.0628 14.1516C27.9529 14.0413 27.947 14.0292 27.9381 14.0202C27.5349 13.6164 27.1315 13.2128 26.728 12.8093C26.1941 12.2754 26.1937 11.9246 26.7278 11.3911C28.0219 10.0986 29.3163 8.80651 30.6101 7.51374C31.2219 6.90238 31.0482 6.19477 30.6581 5.83903C30.1797 5.40266 29.5269 5.29744 28.9616 5.87921C27.6962 7.1814 26.3899 8.44393 25.1154 9.73743C24.6158 10.2444 24.1369 10.2576 23.6512 9.74171C23.2362 9.30095 22.8048 8.87549 22.3575 8.41974C22.1474 8.63636 21.977 8.8119 21.767 9.02661Z" fill="#142F4D"/>
<path d="M22.3635 44.0048C21.6321 43.7254 21.076 43.3109 20.8916 42.541C20.8626 42.4195 20.8384 42.2932 20.8384 42.1692C20.8358 36.3072 20.8346 30.4452 20.8378 24.5833C20.8383 23.7009 21.6338 22.8337 22.5507 22.7623C23.0396 22.7243 23.5301 22.6981 24.0203 22.6852C24.5144 22.6722 25.0093 22.6823 25.5433 22.6823C25.5433 21.6148 25.5432 20.5691 25.5433 19.5233C25.5433 18.9751 25.7846 18.7174 26.3416 18.7159C28.4989 18.7102 30.6562 18.7112 32.8135 18.7153C33.3329 18.7163 33.6213 19.0216 33.6229 19.5557C33.6259 20.5799 33.6238 21.6039 33.6238 22.6823C34.2379 22.6823 34.8462 22.6723 35.454 22.6857C35.892 22.6953 36.3419 22.6809 36.7644 22.7751C37.5175 22.9429 38.223 23.6537 38.2542 24.4645C38.2714 24.9118 38.327 25.3585 38.3275 25.8056C38.3328 31.1229 38.3327 36.4401 38.3292 41.7574C38.3286 42.703 37.9649 43.4511 37.075 43.8863C37.0082 43.9189 36.9298 43.9285 36.8486 43.9768C32.027 44.0048 27.2136 44.0048 22.3635 44.0048ZM26.1851 24.0831C25.1788 24.0831 24.1724 24.0798 23.1661 24.0843C22.5462 24.0871 22.2491 24.3362 22.249 24.8488C22.2479 30.54 22.2479 36.2312 22.249 41.9224C22.2491 42.375 22.477 42.6031 22.9307 42.6032C27.3612 42.6046 31.7917 42.6013 36.2222 42.6096C36.5525 42.6102 36.7288 42.4369 36.8304 42.1843C36.9033 42.0032 36.9148 41.789 36.9153 41.5894C36.9207 39.2689 36.9188 36.9483 36.9188 34.6278C36.9188 31.4646 36.9193 28.3014 36.9178 25.1382C36.9177 24.818 36.9048 24.4735 36.6026 24.2908C36.3993 24.168 36.1336 24.0971 35.8939 24.0921C34.888 24.0708 33.8814 24.0857 32.8751 24.0818C32.4432 24.0803 32.2188 23.8517 32.2122 23.4215C32.2089 23.2062 32.2116 22.9909 32.2116 22.7464C31.7426 22.7464 31.3179 22.7464 30.9007 22.7464C30.9007 22.2685 30.9007 21.822 30.9007 21.3451C31.3475 21.3451 31.772 21.3451 32.1886 21.3451C32.1886 20.9191 32.1886 20.5245 32.1886 20.1366C30.4345 20.1366 28.7033 20.1366 26.978 20.1366C26.978 20.5539 26.978 20.9485 26.978 21.3733C28.0782 21.3733 29.1561 21.3733 30.2278 21.3733C30.2278 21.8508 30.2278 22.2973 30.2278 22.7731C29.127 22.7731 28.0484 22.7731 26.9553 22.7731C26.9553 22.9568 26.963 23.1114 26.9539 23.265C26.9229 23.791 26.6881 24.0631 26.1851 24.0831Z" fill="#142F4D"/>
<path d="M8.76269 35.404C9.12214 36.408 9.48105 37.3805 9.79907 38.366C10.1278 39.3848 9.86834 40.285 9.18783 41.0985C8.33658 42.1162 6.89302 42.3628 5.74513 41.8247C4.79872 41.3812 4.21173 40.6103 4.07516 39.5012C3.96686 38.6216 4.3378 37.8863 4.59548 37.1164C4.99535 35.9217 5.45347 34.7462 5.89168 33.5643C6.03886 33.1674 6.19676 32.7742 6.35699 32.3823C6.47481 32.0941 6.69473 31.9345 7.01072 31.9549C7.30107 31.9736 7.52621 32.0918 7.63644 32.3952C7.9986 33.3921 8.37388 34.3843 8.76269 35.404ZM7.15912 40.676C7.28119 40.6497 7.40915 40.6386 7.52438 40.5946C8.06635 40.3876 8.6772 39.6689 8.4709 38.9649C8.32752 38.4756 8.16974 37.9898 7.99947 37.5091C7.68161 36.6116 7.35006 35.719 6.98869 34.7269C6.49457 36.0844 6.04192 37.3442 5.57737 38.5996C5.15408 39.7435 6.08575 40.7661 7.15912 40.676Z" fill="#142F4D"/>
<path d="M35.6144 33.348C35.6144 35.7807 35.6146 38.1748 35.6142 40.5689C35.6142 40.9923 35.3935 41.2221 34.9721 41.2272C34.534 41.2325 34.096 41.2284 33.6303 41.2284C33.6303 40.7703 33.6303 40.3174 33.6303 39.8483C33.8126 39.8483 33.99 39.8483 34.1946 39.8483C34.1946 35.6983 34.1946 31.564 34.1946 27.4144C31.1687 27.4144 28.1463 27.4144 25.1078 27.4144C25.1078 31.5529 25.1078 35.6777 25.1078 39.8326C27.5211 39.8326 29.9248 39.8326 32.3464 39.8326C32.3464 40.3055 32.3464 40.7488 32.3464 41.2284C32.2155 41.2284 32.0908 41.2284 31.966 41.2284C29.4652 41.2284 26.9644 41.2285 24.4636 41.2283C23.9042 41.2282 23.6989 41.0195 23.6989 40.4514C23.6988 35.9208 23.6988 31.39 23.6989 26.8593C23.6989 26.2698 23.9564 26.0094 24.5521 26.0091C27.9809 26.0078 31.4099 26.01 34.8388 26.0066C35.2955 26.0061 35.6351 26.2687 35.6277 26.7839C35.5964 28.9586 35.6144 31.1341 35.6144 33.348Z" fill="#142F4D"/>
</g>
<path d="M66.808 40.528C65.4 40.528 63.944 40.4 62.44 40.144C60.968 39.888 59.624 39.456 58.408 38.848C57.768 38.528 57.304 38.128 57.016 37.648C56.76 37.136 56.648 36.624 56.68 36.112C56.712 35.6 56.872 35.136 57.16 34.72C57.48 34.304 57.88 34.032 58.36 33.904C58.872 33.744 59.432 33.792 60.04 34.048C61.352 34.592 62.552 34.976 63.64 35.2C64.728 35.424 65.8 35.536 66.856 35.536C68.232 35.536 69.224 35.328 69.832 34.912C70.472 34.464 70.792 33.888 70.792 33.184C70.792 32.544 70.584 32.064 70.168 31.744C69.752 31.424 69.144 31.2 68.344 31.072L63.304 30.16C61.32 29.808 59.784 29.088 58.696 28C57.64 26.88 57.112 25.456 57.112 23.728C57.112 22.128 57.56 20.752 58.456 19.6C59.352 18.416 60.584 17.52 62.152 16.912C63.752 16.272 65.56 15.952 67.576 15.952C69.016 15.952 70.344 16.08 71.56 16.336C72.776 16.592 73.944 17.008 75.064 17.584C75.64 17.872 76.04 18.256 76.264 18.736C76.52 19.216 76.6 19.712 76.504 20.224C76.44 20.736 76.248 21.2 75.928 21.616C75.608 22.032 75.192 22.304 74.68 22.432C74.2 22.56 73.64 22.496 73 22.24C71.976 21.76 71.032 21.424 70.168 21.232C69.304 21.008 68.472 20.896 67.672 20.896C66.232 20.896 65.192 21.136 64.552 21.616C63.912 22.064 63.592 22.64 63.592 23.344C63.592 23.888 63.768 24.352 64.12 24.736C64.504 25.088 65.08 25.328 65.848 25.456L70.888 26.368C72.968 26.72 74.552 27.424 75.64 28.48C76.728 29.504 77.272 30.912 77.272 32.704C77.272 35.136 76.312 37.056 74.392 38.464C72.504 39.84 69.976 40.528 66.808 40.528ZM84.481 40.432C83.297 40.432 82.385 40.112 81.745 39.472C81.137 38.832 80.833 37.92 80.833 36.736V9.424C80.833 8.208 81.137 7.296 81.745 6.688C82.385 6.048 83.297 5.728 84.481 5.728C85.633 5.728 86.513 6.048 87.121 6.688C87.761 7.296 88.081 8.208 88.081 9.424V26.176H88.177L95.137 18.448C95.841 17.648 96.481 17.056 97.057 16.672C97.665 16.256 98.465 16.048 99.457 16.048C100.449 16.048 101.201 16.304 101.713 16.816C102.257 17.328 102.529 17.952 102.529 18.688C102.561 19.392 102.257 20.112 101.617 20.848L94.273 29.056V26.32L102.433 35.728C103.041 36.464 103.297 37.2 103.201 37.936C103.137 38.672 102.817 39.28 102.241 39.76C101.665 40.208 100.929 40.432 100.033 40.432C98.945 40.432 98.065 40.224 97.393 39.808C96.753 39.392 96.097 38.752 95.425 37.888L88.177 29.824H88.081V36.736C88.081 39.2 86.881 40.432 84.481 40.432ZM110.671 40.384C109.487 40.384 108.575 40.048 107.935 39.376C107.327 38.672 107.023 37.696 107.023 36.448V20.032C107.023 18.752 107.327 17.776 107.935 17.104C108.575 16.4 109.487 16.048 110.671 16.048C111.823 16.048 112.703 16.4 113.311 17.104C113.951 17.776 114.271 18.752 114.271 20.032V36.448C114.271 37.696 113.967 38.672 113.359 39.376C112.751 40.048 111.855 40.384 110.671 40.384ZM110.671 12.112C109.327 12.112 108.287 11.808 107.551 11.2C106.847 10.56 106.495 9.664 106.495 8.512C106.495 7.328 106.847 6.432 107.551 5.824C108.287 5.184 109.327 4.864 110.671 4.864C112.015 4.864 113.039 5.184 113.743 5.824C114.447 6.432 114.799 7.328 114.799 8.512C114.799 9.664 114.447 10.56 113.743 11.2C113.039 11.808 112.015 12.112 110.671 12.112ZM122.938 40.432C121.754 40.432 120.842 40.112 120.202 39.472C119.594 38.832 119.29 37.92 119.29 36.736V19.696C119.29 18.512 119.594 17.616 120.202 17.008C120.842 16.368 121.722 16.048 122.842 16.048C123.994 16.048 124.874 16.368 125.482 17.008C126.09 17.616 126.394 18.512 126.394 19.696V22.432L125.866 20.848C126.602 19.28 127.69 18.08 129.13 17.248C130.602 16.384 132.266 15.952 134.122 15.952C136.01 15.952 137.562 16.32 138.778 17.056C139.994 17.76 140.906 18.848 141.514 20.32C142.122 21.76 142.426 23.6 142.426 25.84V36.736C142.426 37.92 142.106 38.832 141.466 39.472C140.858 40.112 139.962 40.432 138.778 40.432C137.626 40.432 136.73 40.112 136.09 39.472C135.482 38.832 135.178 37.92 135.178 36.736V26.176C135.178 24.544 134.874 23.376 134.266 22.672C133.69 21.936 132.794 21.568 131.578 21.568C130.042 21.568 128.81 22.048 127.882 23.008C126.986 23.968 126.538 25.248 126.538 26.848V36.736C126.538 39.2 125.338 40.432 122.938 40.432ZM156.723 40.432C155.763 40.432 154.947 40.208 154.275 39.76C153.603 39.28 153.059 38.528 152.643 37.504L145.875 20.752C145.523 19.856 145.411 19.072 145.539 18.4C145.667 17.696 146.003 17.136 146.547 16.72C147.123 16.272 147.907 16.048 148.899 16.048C149.731 16.048 150.419 16.256 150.963 16.672C151.507 17.056 151.971 17.808 152.355 18.928L157.635 32.992H156.531L162.003 18.304C162.259 17.536 162.627 16.976 163.107 16.624C163.619 16.24 164.275 16.048 165.075 16.048C165.875 16.048 166.515 16.24 166.995 16.624C167.507 17.008 167.907 17.568 168.195 18.304L173.571 32.992H172.659L177.891 18.736C178.275 17.712 178.771 17.008 179.379 16.624C179.987 16.24 180.643 16.048 181.347 16.048C182.243 16.048 182.931 16.272 183.411 16.72C183.923 17.168 184.211 17.744 184.275 18.448C184.371 19.152 184.243 19.92 183.891 20.752L177.171 37.504C176.787 38.496 176.243 39.232 175.539 39.712C174.867 40.192 174.051 40.432 173.091 40.432C172.163 40.432 171.347 40.192 170.643 39.712C169.971 39.232 169.427 38.496 169.011 37.504L163.251 22.528H166.371L160.755 37.456C160.371 38.448 159.843 39.2 159.171 39.712C158.499 40.192 157.683 40.432 156.723 40.432ZM191.443 40.384C190.259 40.384 189.347 40.048 188.707 39.376C188.099 38.672 187.795 37.696 187.795 36.448V20.032C187.795 18.752 188.099 17.776 188.707 17.104C189.347 16.4 190.259 16.048 191.443 16.048C192.595 16.048 193.475 16.4 194.083 17.104C194.723 17.776 195.043 18.752 195.043 20.032V36.448C195.043 37.696 194.739 38.672 194.131 39.376C193.523 40.048 192.627 40.384 191.443 40.384ZM191.443 12.112C190.099 12.112 189.059 11.808 188.323 11.2C187.619 10.56 187.267 9.664 187.267 8.512C187.267 7.328 187.619 6.432 188.323 5.824C189.059 5.184 190.099 4.864 191.443 4.864C192.787 4.864 193.811 5.184 194.515 5.824C195.219 6.432 195.571 7.328 195.571 8.512C195.571 9.664 195.219 10.56 194.515 11.2C193.811 11.808 192.787 12.112 191.443 12.112ZM209.086 40.528C207.678 40.528 206.222 40.4 204.718 40.144C203.246 39.888 201.902 39.456 200.686 38.848C200.046 38.528 199.582 38.128 199.294 37.648C199.038 37.136 198.926 36.624 198.958 36.112C198.99 35.6 199.15 35.136 199.438 34.72C199.758 34.304 200.158 34.032 200.638 33.904C201.15 33.744 201.71 33.792 202.318 34.048C203.63 34.592 204.83 34.976 205.918 35.2C207.006 35.424 208.078 35.536 209.134 35.536C210.51 35.536 211.502 35.328 212.11 34.912C212.75 34.464 213.07 33.888 213.07 33.184C213.07 32.544 212.862 32.064 212.446 31.744C212.03 31.424 211.422 31.2 210.622 31.072L205.582 30.16C203.598 29.808 202.062 29.088 200.974 28C199.918 26.88 199.39 25.456 199.39 23.728C199.39 22.128 199.838 20.752 200.734 19.6C201.63 18.416 202.862 17.52 204.43 16.912C206.03 16.272 207.838 15.952 209.854 15.952C211.294 15.952 212.622 16.08 213.838 16.336C215.054 16.592 216.222 17.008 217.342 17.584C217.918 17.872 218.318 18.256 218.542 18.736C218.798 19.216 218.878 19.712 218.782 20.224C218.718 20.736 218.526 21.2 218.206 21.616C217.886 22.032 217.47 22.304 216.958 22.432C216.478 22.56 215.918 22.496 215.278 22.24C214.254 21.76 213.31 21.424 212.446 21.232C211.582 21.008 210.75 20.896 209.95 20.896C208.51 20.896 207.47 21.136 206.83 21.616C206.19 22.064 205.87 22.64 205.87 23.344C205.87 23.888 206.046 24.352 206.398 24.736C206.782 25.088 207.358 25.328 208.126 25.456L213.166 26.368C215.246 26.72 216.83 27.424 217.918 28.48C219.006 29.504 219.55 30.912 219.55 32.704C219.55 35.136 218.59 37.056 216.67 38.464C214.782 39.84 212.254 40.528 209.086 40.528ZM235.351 40.528C232.567 40.528 230.167 40.032 228.151 39.04C226.167 38.016 224.631 36.592 223.543 34.768C222.487 32.912 221.959 30.736 221.959 28.24C221.959 25.808 222.471 23.68 223.495 21.856C224.519 20 225.943 18.56 227.767 17.536C229.623 16.48 231.719 15.952 234.055 15.952C235.751 15.952 237.287 16.24 238.663 16.816C240.039 17.36 241.223 18.16 242.215 19.216C243.207 20.24 243.959 21.504 244.471 23.008C244.983 24.48 245.239 26.128 245.239 27.952C245.239 28.56 245.047 29.024 244.663 29.344C244.279 29.632 243.719 29.776 242.983 29.776H227.911V26.032H240.007L239.239 26.704C239.239 25.392 239.047 24.304 238.663 23.44C238.279 22.544 237.719 21.872 236.983 21.424C236.279 20.976 235.399 20.752 234.343 20.752C233.159 20.752 232.151 21.024 231.319 21.568C230.487 22.112 229.847 22.896 229.399 23.92C228.951 24.944 228.727 26.176 228.727 27.616V28C228.727 30.432 229.287 32.224 230.407 33.376C231.559 34.528 233.255 35.104 235.495 35.104C236.263 35.104 237.143 35.008 238.135 34.816C239.127 34.624 240.055 34.32 240.919 33.904C241.655 33.552 242.311 33.44 242.887 33.568C243.463 33.664 243.911 33.92 244.231 34.336C244.551 34.752 244.727 35.232 244.759 35.776C244.823 36.32 244.711 36.864 244.423 37.408C244.135 37.92 243.655 38.352 242.983 38.704C241.895 39.312 240.663 39.76 239.287 40.048C237.943 40.368 236.631 40.528 235.351 40.528Z" fill="#AFD7E3"/>
<defs>
<clipPath id="clip0_125_28">
<rect width="47" height="49" fill="white"/>
</clipPath>
</defs>
</svg>
