<svg width="64" height="65" viewBox="0 0 64 65" fill="none" xmlns="http://www.w3.org/2000/svg">
<rect y="0.5" width="64" height="64" rx="32" fill="white"/>
<path d="M13.4822 43.7356C11.2782 46.6804 9.22836 49.7374 7.34086 52.8945C3.17742 47.8867 0.65436 41.7199 0.113647 35.23C1.53412 37.5835 3.48028 39.5762 5.79963 41.0519C8.11898 42.5275 10.7485 43.4461 13.4822 43.7356Z" fill="url(#paint0_linear_40003331_78)"/>
<path d="M41.9254 62.9067C38.7972 63.959 35.4687 64.4995 31.9986 64.4995C28.4771 64.5042 24.979 63.9274 21.6454 62.7925C21.3322 62.6789 21.0199 62.5935 20.7068 62.4515C17.7068 61.3188 14.8966 59.7361 12.3728 57.7579C14.8189 53.7761 17.4645 49.7371 20.2233 46.2666C20.252 46.5798 20.252 46.8642 20.2804 47.1486C20.3087 47.4618 20.3374 47.7458 20.3675 48.0306C20.4546 48.6278 20.5382 49.1966 20.6806 49.7654C20.846 50.4698 21.0549 51.1632 21.3061 51.8417C21.4014 52.1965 21.535 52.5399 21.7046 52.8657C21.7896 53.0935 21.8754 53.2926 21.9603 53.4916C22.1598 53.8619 22.3305 54.2025 22.5296 54.5444C22.8136 55.0274 23.0984 55.5109 23.4395 55.9665C23.7202 56.4068 24.034 56.8251 24.3781 57.2178C24.7479 57.7013 25.1747 58.1281 25.6011 58.5546C28.8155 61.6836 33.196 63.6175 38.0311 63.6175C38.4575 63.6175 38.8556 63.6175 39.2824 63.5892H39.3112C40.191 63.3897 41.0726 63.1623 41.9254 62.9067Z" fill="url(#paint1_linear_40003331_78)"/>
<path d="M49.8901 5.9606C49.6324 5.76357 49.3561 5.59217 49.0652 5.44882C44.1434 2.31978 38.2847 0.500017 31.9987 0.500017C26.4967 0.494381 21.0872 1.91522 16.2981 4.62388C15.9854 4.79505 15.6722 4.96535 15.3874 5.13566C6.17273 10.7409 0 20.8954 0 32.5004C0 33.4108 0.0283113 34.3206 0.113681 35.231C1.53425 37.5844 3.48045 39.5768 5.79979 41.0523C8.11914 42.5278 10.7486 43.4463 13.4823 43.7357C17.5961 38.1379 21.983 32.9965 27.2934 28.4946C28.2307 27.6999 29.1834 26.9234 30.1515 26.1653C32.2108 24.5537 34.5214 23.0658 36.7493 21.6921C38.4554 20.6393 40.2194 19.4734 42.1533 18.8174C43.2622 18.4476 44.7701 18.3056 45.9936 18.3906C46.7615 18.4777 48.0699 18.9881 47.2733 19.9546C43.8032 24.0794 41.5561 26.0707 39.7921 28.0329C38.7973 29.0852 37.9724 30.1092 37.1757 31.4738C36.9762 31.8719 36.6069 32.1847 36.664 32.6398L39.1384 48.4828C39.195 48.853 39.1096 49.1941 38.8535 49.4789L36.18 52.3802C35.5829 52.9773 34.5593 52.7495 34.2745 51.9812L29.78 38.8709C29.553 38.3021 28.8422 37.8752 28.3012 38.2176C27.1353 38.9855 25.9122 39.9807 24.7179 41.1759C23.237 42.598 21.7313 44.3328 20.2521 46.2667C20.2521 46.5799 20.2521 46.8643 20.2804 47.1487C20.3088 47.4619 20.3375 47.7458 20.3676 48.0307C20.4547 48.6278 20.5383 49.1967 20.6807 49.7655C20.8461 50.4699 21.055 51.1633 21.3062 51.8418C21.4015 52.1966 21.5351 52.54 21.7047 52.8658C21.7897 53.0936 21.8755 53.2927 21.9604 53.4917C22.1599 53.8619 22.3306 54.2026 22.5297 54.5445C22.8136 55.0275 23.0985 55.511 23.4395 55.9666C23.7272 56.402 24.0407 56.8199 24.3782 57.2179C24.748 57.7014 25.1748 58.1282 25.6012 58.5546C28.8156 61.6837 33.196 63.6176 38.0312 63.6176C38.4576 63.6176 38.8557 63.6176 39.3113 63.5893C40.1933 63.3898 41.0749 63.1624 41.9277 62.9067C42.6389 62.6789 43.3215 62.4516 44.004 62.1663C44.1655 62.1394 44.3202 62.0815 44.4596 61.9956C55.9217 57.1317 64 45.754 64 32.4996C63.9978 21.4665 58.3944 11.71 49.8901 5.9606ZM21.0483 31.6755L8.76081 29.0587C7.79344 28.8596 7.50945 27.6078 8.30565 27.0394L11.3489 24.7919C11.5647 24.6408 11.8269 24.5704 12.0893 24.5933L27.9031 25.5886C25.542 27.5229 23.2388 29.5421 21.0483 31.6755Z" fill="url(#paint2_linear_40003331_78)"/>
<defs>
<linearGradient id="paint0_linear_40003331_78" x1="0.113647" y1="44.0625" x2="13.4818" y2="44.0625" gradientUnits="userSpaceOnUse">
<stop stop-color="#0B9BFF"/>
<stop offset="0.23" stop-color="#18ACFF"/>
<stop offset="0.73" stop-color="#31CDFF"/>
<stop offset="1" stop-color="#3BDAFF"/>
</linearGradient>
<linearGradient id="paint1_linear_40003331_78" x1="12.3728" y1="55.3833" x2="41.9244" y2="55.3833" gradientUnits="userSpaceOnUse">
<stop stop-color="#0B9BFF"/>
<stop offset="0.23" stop-color="#18ACFF"/>
<stop offset="0.73" stop-color="#31CDFF"/>
<stop offset="1" stop-color="#3BDAFF"/>
</linearGradient>
<linearGradient id="paint2_linear_40003331_78" x1="0" y1="32.0597" x2="63.9978" y2="32.0597" gradientUnits="userSpaceOnUse">
<stop stop-color="#0B9BFF"/>
<stop offset="0.23" stop-color="#18ACFF"/>
<stop offset="0.73" stop-color="#31CDFF"/>
<stop offset="1" stop-color="#3BDAFF"/>
</linearGradient>
</defs>
</svg>
