<svg width="272" height="52" viewBox="0 0 272 52" fill="none" xmlns="http://www.w3.org/2000/svg">
<path d="M40.6379 3H6.3621C2.84841 3 0 5.83988 0 9.34304V45.657C0 49.1601 2.84841 52 6.3621 52H40.6379C44.1516 52 47 49.1601 47 45.657V9.34304C47 5.83988 44.1516 3 40.6379 3Z" fill="#142F4D"/>
<path d="M31.4582 6.64746C32.0015 6.90189 32.5277 7.12013 32.8843 7.60184C33.3072 8.17324 33.4528 8.78713 33.3852 9.50183C33.311 10.2867 32.882 10.8291 32.3633 11.3454C31.2685 12.4351 30.1754 13.5266 29.0716 14.6274C29.5271 15.0789 29.9715 15.5327 30.4308 15.9709C30.8659 16.3858 30.8483 16.84 30.4419 17.2365C29.8565 17.8074 29.2741 18.3819 28.7062 18.9701C28.2933 19.3978 27.823 19.397 27.41 18.9569C26.9838 18.5029 26.5338 18.0711 26.0563 17.5914C25.914 17.7503 25.7854 17.9089 25.6417 18.0524C20.9391 22.7494 16.2341 27.444 11.5333 32.1428C11.249 32.427 10.9551 32.5923 10.5263 32.5731C9.73526 32.5377 8.94159 32.5635 8.14903 32.5628C7.69674 32.5625 7.41006 32.3018 7.40614 31.8616C7.3985 31.0056 7.38278 30.1487 7.41822 29.2942C7.4275 29.0703 7.56188 28.8035 7.72396 28.6411C12.5013 23.8536 17.2892 19.0768 22.0765 14.2992C22.1771 14.1988 22.2898 14.1103 22.4336 13.9838C21.9401 13.4921 21.474 13.0295 21.0102 12.5647C20.6595 12.2131 20.5792 11.8041 20.9102 11.4518C21.5718 10.7477 22.2754 10.0807 22.99 9.42954C23.2725 9.17218 23.6706 9.23458 23.9471 9.50656C24.4277 9.9793 24.9 10.4605 25.395 10.9576C25.4914 10.8716 25.5789 10.8007 25.6582 10.7217C26.7891 9.59456 27.9006 8.44693 29.0611 7.35111C29.3743 7.05542 29.8357 6.91609 30.2381 6.67622C30.6388 6.64746 31.0303 6.64746 31.4582 6.64746ZM17.4222 20.9672C14.6296 23.7554 11.8363 26.5428 9.0472 29.3345C8.94596 29.4359 8.8254 29.5751 8.81816 29.7026C8.79097 30.1775 8.80727 30.6549 8.80727 31.1621C9.2752 31.1621 9.71419 31.1475 10.1515 31.1679C10.3928 31.1792 10.5533 31.0984 10.7216 30.9301C15.4025 26.2487 20.0888 21.5726 24.7769 16.8986C24.8666 16.8093 24.9907 16.7544 25.0902 16.689C24.4743 16.0788 23.9347 15.5444 23.3919 15.0067C21.4294 16.9661 19.4453 18.9472 17.4222 20.9672ZM22.8009 11.551C22.654 11.6548 22.5071 11.7586 22.4013 11.8333C24.3579 13.7854 26.2273 15.6505 28.1453 17.564C28.2657 17.4251 28.3968 17.2468 28.5558 17.0982C28.7221 16.9426 28.9153 16.8155 29.0967 16.676C28.9868 16.5658 28.9809 16.5536 28.9719 16.5446C28.5687 16.1408 28.1654 15.7372 27.7619 15.3337C27.2279 14.7999 27.2276 14.449 27.7617 13.9156C29.0558 12.623 30.3502 11.3309 31.6439 10.0381C32.2557 9.42679 32.0821 8.71919 31.692 8.36344C31.2135 7.92707 30.5608 7.82185 29.9954 8.40362C28.7301 9.70581 27.4238 10.9683 26.1492 12.2618C25.6497 12.7688 25.1707 12.7821 24.6851 12.2661C24.27 11.8254 23.8387 11.3999 23.3914 10.9442C23.1812 11.1608 23.0109 11.3363 22.8009 11.551Z" fill="#AFD7E3"/>
<path d="M23.3974 46.5292C22.666 46.2498 22.1099 45.8354 21.9255 45.0654C21.8965 44.9439 21.8723 44.8176 21.8723 44.6936C21.8697 38.8316 21.8685 32.9696 21.8717 27.1077C21.8721 26.2253 22.6676 25.3581 23.5846 25.2867C24.0735 25.2487 24.5639 25.2225 25.0542 25.2096C25.5483 25.1966 26.0431 25.2067 26.5771 25.2067C26.5771 24.1392 26.5771 23.0935 26.5771 22.0477C26.5771 21.4996 26.8184 21.2418 27.3755 21.2404C29.5327 21.2346 31.6901 21.2356 33.8474 21.2397C34.3668 21.2407 34.6552 21.546 34.6568 22.0801C34.6598 23.1043 34.6577 24.1284 34.6577 25.2067C35.2718 25.2067 35.88 25.1968 36.4879 25.2102C36.9259 25.2197 37.3758 25.2053 37.7983 25.2995C38.5513 25.4673 39.2569 26.1781 39.2881 26.9889C39.3052 27.4362 39.3609 27.883 39.3614 28.33C39.3666 33.6473 39.3666 38.9645 39.3631 44.2818C39.3625 45.2274 38.9988 45.9755 38.1089 46.4107C38.042 46.4433 37.9637 46.4529 37.8824 46.5012C33.0608 46.5292 28.2474 46.5292 23.3974 46.5292ZM27.219 26.6075C26.2127 26.6075 25.2063 26.6042 24.2 26.6087C23.58 26.6115 23.283 26.8606 23.2829 27.3732C23.2817 33.0644 23.2817 38.7556 23.2829 44.4468C23.283 44.8994 23.5109 45.1275 23.9646 45.1276C28.395 45.129 32.8256 45.1257 37.2561 45.134C37.5864 45.1346 37.7627 44.9613 37.8643 44.7087C37.9372 44.5276 37.9487 44.3134 37.9492 44.1138C37.9546 41.7933 37.9527 39.4727 37.9527 37.1522C37.9527 33.989 37.9532 30.8258 37.9517 27.6626C37.9515 27.3424 37.9387 26.9979 37.6365 26.8153C37.4332 26.6924 37.1675 26.6216 36.9278 26.6165C35.9219 26.5952 34.9153 26.6101 33.909 26.6063C33.4771 26.6047 33.2527 26.3761 33.2461 25.9459C33.2428 25.7306 33.2455 25.5153 33.2455 25.2708C32.7765 25.2708 32.3518 25.2708 31.9346 25.2708C31.9346 24.7929 31.9346 24.3464 31.9346 23.8695C32.3814 23.8695 32.8059 23.8695 33.2225 23.8695C33.2225 23.4435 33.2225 23.0489 33.2225 22.661C31.4683 22.661 29.7372 22.661 28.0119 22.661C28.0119 23.0783 28.0119 23.473 28.0119 23.8977C29.112 23.8977 30.1899 23.8977 31.2616 23.8977C31.2616 24.3753 31.2616 24.8217 31.2616 25.2975C30.1608 25.2975 29.0822 25.2975 27.9892 25.2975C27.9892 25.4812 27.9969 25.6359 27.9878 25.7894C27.9568 26.3154 27.7219 26.5875 27.219 26.6075Z" fill="#AFD7E3"/>
<path d="M36.6482 35.8717C36.6482 38.3044 36.6484 40.6984 36.6481 43.0926C36.648 43.5159 36.4273 43.7458 36.0059 43.7509C35.5679 43.7562 35.1298 43.7521 34.6641 43.7521C34.6641 43.2939 34.6641 42.8411 34.6641 42.372C34.8464 42.372 35.0238 42.372 35.2284 42.372C35.2284 38.222 35.2284 34.0877 35.2284 29.9381C32.2025 29.9381 29.1802 29.9381 26.1416 29.9381C26.1416 34.0766 26.1416 38.2014 26.1416 42.3563C28.5549 42.3563 30.9586 42.3563 33.3802 42.3563C33.3802 42.8292 33.3802 43.2725 33.3802 43.7521C33.2493 43.7521 33.1246 43.7521 32.9998 43.7521C30.499 43.7521 27.9982 43.7522 25.4974 43.752C24.9381 43.7519 24.7327 43.5431 24.7327 42.9751C24.7326 38.4444 24.7326 33.9137 24.7327 29.3829C24.7327 28.7935 24.9902 28.5331 25.5859 28.5328C29.0147 28.5315 32.4437 28.5337 35.8726 28.5303C36.3293 28.5298 36.6689 28.7924 36.6615 29.3075C36.6302 31.4823 36.6482 33.6578 36.6482 35.8717Z" fill="#AFD7E3"/>
<path d="M65.808 40.528C64.4 40.528 62.944 40.4 61.44 40.144C59.968 39.888 58.624 39.456 57.408 38.848C56.768 38.528 56.304 38.128 56.016 37.648C55.76 37.136 55.648 36.624 55.68 36.112C55.712 35.6 55.872 35.136 56.16 34.72C56.48 34.304 56.88 34.032 57.36 33.904C57.872 33.744 58.432 33.792 59.04 34.048C60.352 34.592 61.552 34.976 62.64 35.2C63.728 35.424 64.8 35.536 65.856 35.536C67.232 35.536 68.224 35.328 68.832 34.912C69.472 34.464 69.792 33.888 69.792 33.184C69.792 32.544 69.584 32.064 69.168 31.744C68.752 31.424 68.144 31.2 67.344 31.072L62.304 30.16C60.32 29.808 58.784 29.088 57.696 28C56.64 26.88 56.112 25.456 56.112 23.728C56.112 22.128 56.56 20.752 57.456 19.6C58.352 18.416 59.584 17.52 61.152 16.912C62.752 16.272 64.56 15.952 66.576 15.952C68.016 15.952 69.344 16.08 70.56 16.336C71.776 16.592 72.944 17.008 74.064 17.584C74.64 17.872 75.04 18.256 75.264 18.736C75.52 19.216 75.6 19.712 75.504 20.224C75.44 20.736 75.248 21.2 74.928 21.616C74.608 22.032 74.192 22.304 73.68 22.432C73.2 22.56 72.64 22.496 72 22.24C70.976 21.76 70.032 21.424 69.168 21.232C68.304 21.008 67.472 20.896 66.672 20.896C65.232 20.896 64.192 21.136 63.552 21.616C62.912 22.064 62.592 22.64 62.592 23.344C62.592 23.888 62.768 24.352 63.12 24.736C63.504 25.088 64.08 25.328 64.848 25.456L69.888 26.368C71.968 26.72 73.552 27.424 74.64 28.48C75.728 29.504 76.272 30.912 76.272 32.704C76.272 35.136 75.312 37.056 73.392 38.464C71.504 39.84 68.976 40.528 65.808 40.528ZM83.481 40.432C82.297 40.432 81.385 40.112 80.745 39.472C80.137 38.832 79.833 37.92 79.833 36.736V9.424C79.833 8.208 80.137 7.296 80.745 6.688C81.385 6.048 82.297 5.728 83.481 5.728C84.633 5.728 85.513 6.048 86.121 6.688C86.761 7.296 87.081 8.208 87.081 9.424V26.176H87.177L94.137 18.448C94.841 17.648 95.481 17.056 96.057 16.672C96.665 16.256 97.465 16.048 98.457 16.048C99.449 16.048 100.201 16.304 100.713 16.816C101.257 17.328 101.529 17.952 101.529 18.688C101.561 19.392 101.257 20.112 100.617 20.848L93.273 29.056V26.32L101.433 35.728C102.041 36.464 102.297 37.2 102.201 37.936C102.137 38.672 101.817 39.28 101.241 39.76C100.665 40.208 99.929 40.432 99.033 40.432C97.945 40.432 97.065 40.224 96.393 39.808C95.753 39.392 95.097 38.752 94.425 37.888L87.177 29.824H87.081V36.736C87.081 39.2 85.881 40.432 83.481 40.432ZM109.671 40.384C108.487 40.384 107.575 40.048 106.935 39.376C106.327 38.672 106.023 37.696 106.023 36.448V20.032C106.023 18.752 106.327 17.776 106.935 17.104C107.575 16.4 108.487 16.048 109.671 16.048C110.823 16.048 111.703 16.4 112.311 17.104C112.951 17.776 113.271 18.752 113.271 20.032V36.448C113.271 37.696 112.967 38.672 112.359 39.376C111.751 40.048 110.855 40.384 109.671 40.384ZM109.671 12.112C108.327 12.112 107.287 11.808 106.551 11.2C105.847 10.56 105.495 9.664 105.495 8.512C105.495 7.328 105.847 6.432 106.551 5.824C107.287 5.184 108.327 4.864 109.671 4.864C111.015 4.864 112.039 5.184 112.743 5.824C113.447 6.432 113.799 7.328 113.799 8.512C113.799 9.664 113.447 10.56 112.743 11.2C112.039 11.808 111.015 12.112 109.671 12.112ZM121.938 40.432C120.754 40.432 119.842 40.112 119.202 39.472C118.594 38.832 118.29 37.92 118.29 36.736V19.696C118.29 18.512 118.594 17.616 119.202 17.008C119.842 16.368 120.722 16.048 121.842 16.048C122.994 16.048 123.874 16.368 124.482 17.008C125.09 17.616 125.394 18.512 125.394 19.696V22.432L124.866 20.848C125.602 19.28 126.69 18.08 128.13 17.248C129.602 16.384 131.266 15.952 133.122 15.952C135.01 15.952 136.562 16.32 137.778 17.056C138.994 17.76 139.906 18.848 140.514 20.32C141.122 21.76 141.426 23.6 141.426 25.84V36.736C141.426 37.92 141.106 38.832 140.466 39.472C139.858 40.112 138.962 40.432 137.778 40.432C136.626 40.432 135.73 40.112 135.09 39.472C134.482 38.832 134.178 37.92 134.178 36.736V26.176C134.178 24.544 133.874 23.376 133.266 22.672C132.69 21.936 131.794 21.568 130.578 21.568C129.042 21.568 127.81 22.048 126.882 23.008C125.986 23.968 125.538 25.248 125.538 26.848V36.736C125.538 39.2 124.338 40.432 121.938 40.432ZM155.723 40.432C154.763 40.432 153.947 40.208 153.275 39.76C152.603 39.28 152.059 38.528 151.643 37.504L144.875 20.752C144.523 19.856 144.411 19.072 144.539 18.4C144.667 17.696 145.003 17.136 145.547 16.72C146.123 16.272 146.907 16.048 147.899 16.048C148.731 16.048 149.419 16.256 149.963 16.672C150.507 17.056 150.971 17.808 151.355 18.928L156.635 32.992H155.531L161.003 18.304C161.259 17.536 161.627 16.976 162.107 16.624C162.619 16.24 163.275 16.048 164.075 16.048C164.875 16.048 165.515 16.24 165.995 16.624C166.507 17.008 166.907 17.568 167.195 18.304L172.571 32.992H171.659L176.891 18.736C177.275 17.712 177.771 17.008 178.379 16.624C178.987 16.24 179.643 16.048 180.347 16.048C181.243 16.048 181.931 16.272 182.411 16.72C182.923 17.168 183.211 17.744 183.275 18.448C183.371 19.152 183.243 19.92 182.891 20.752L176.171 37.504C175.787 38.496 175.243 39.232 174.539 39.712C173.867 40.192 173.051 40.432 172.091 40.432C171.163 40.432 170.347 40.192 169.643 39.712C168.971 39.232 168.427 38.496 168.011 37.504L162.251 22.528H165.371L159.755 37.456C159.371 38.448 158.843 39.2 158.171 39.712C157.499 40.192 156.683 40.432 155.723 40.432ZM190.443 40.384C189.259 40.384 188.347 40.048 187.707 39.376C187.099 38.672 186.795 37.696 186.795 36.448V20.032C186.795 18.752 187.099 17.776 187.707 17.104C188.347 16.4 189.259 16.048 190.443 16.048C191.595 16.048 192.475 16.4 193.083 17.104C193.723 17.776 194.043 18.752 194.043 20.032V36.448C194.043 37.696 193.739 38.672 193.131 39.376C192.523 40.048 191.627 40.384 190.443 40.384ZM190.443 12.112C189.099 12.112 188.059 11.808 187.323 11.2C186.619 10.56 186.267 9.664 186.267 8.512C186.267 7.328 186.619 6.432 187.323 5.824C188.059 5.184 189.099 4.864 190.443 4.864C191.787 4.864 192.811 5.184 193.515 5.824C194.219 6.432 194.571 7.328 194.571 8.512C194.571 9.664 194.219 10.56 193.515 11.2C192.811 11.808 191.787 12.112 190.443 12.112ZM208.086 40.528C206.678 40.528 205.222 40.4 203.718 40.144C202.246 39.888 200.902 39.456 199.686 38.848C199.046 38.528 198.582 38.128 198.294 37.648C198.038 37.136 197.926 36.624 197.958 36.112C197.99 35.6 198.15 35.136 198.438 34.72C198.758 34.304 199.158 34.032 199.638 33.904C200.15 33.744 200.71 33.792 201.318 34.048C202.63 34.592 203.83 34.976 204.918 35.2C206.006 35.424 207.078 35.536 208.134 35.536C209.51 35.536 210.502 35.328 211.11 34.912C211.75 34.464 212.07 33.888 212.07 33.184C212.07 32.544 211.862 32.064 211.446 31.744C211.03 31.424 210.422 31.2 209.622 31.072L204.582 30.16C202.598 29.808 201.062 29.088 199.974 28C198.918 26.88 198.39 25.456 198.39 23.728C198.39 22.128 198.838 20.752 199.734 19.6C200.63 18.416 201.862 17.52 203.43 16.912C205.03 16.272 206.838 15.952 208.854 15.952C210.294 15.952 211.622 16.08 212.838 16.336C214.054 16.592 215.222 17.008 216.342 17.584C216.918 17.872 217.318 18.256 217.542 18.736C217.798 19.216 217.878 19.712 217.782 20.224C217.718 20.736 217.526 21.2 217.206 21.616C216.886 22.032 216.47 22.304 215.958 22.432C215.478 22.56 214.918 22.496 214.278 22.24C213.254 21.76 212.31 21.424 211.446 21.232C210.582 21.008 209.75 20.896 208.95 20.896C207.51 20.896 206.47 21.136 205.83 21.616C205.19 22.064 204.87 22.64 204.87 23.344C204.87 23.888 205.046 24.352 205.398 24.736C205.782 25.088 206.358 25.328 207.126 25.456L212.166 26.368C214.246 26.72 215.83 27.424 216.918 28.48C218.006 29.504 218.55 30.912 218.55 32.704C218.55 35.136 217.59 37.056 215.67 38.464C213.782 39.84 211.254 40.528 208.086 40.528ZM234.351 40.528C231.567 40.528 229.167 40.032 227.151 39.04C225.167 38.016 223.631 36.592 222.543 34.768C221.487 32.912 220.959 30.736 220.959 28.24C220.959 25.808 221.471 23.68 222.495 21.856C223.519 20 224.943 18.56 226.767 17.536C228.623 16.48 230.719 15.952 233.055 15.952C234.751 15.952 236.287 16.24 237.663 16.816C239.039 17.36 240.223 18.16 241.215 19.216C242.207 20.24 242.959 21.504 243.471 23.008C243.983 24.48 244.239 26.128 244.239 27.952C244.239 28.56 244.047 29.024 243.663 29.344C243.279 29.632 242.719 29.776 241.983 29.776H226.911V26.032H239.007L238.239 26.704C238.239 25.392 238.047 24.304 237.663 23.44C237.279 22.544 236.719 21.872 235.983 21.424C235.279 20.976 234.399 20.752 233.343 20.752C232.159 20.752 231.151 21.024 230.319 21.568C229.487 22.112 228.847 22.896 228.399 23.92C227.951 24.944 227.727 26.176 227.727 27.616V28C227.727 30.432 228.287 32.224 229.407 33.376C230.559 34.528 232.255 35.104 234.495 35.104C235.263 35.104 236.143 35.008 237.135 34.816C238.127 34.624 239.055 34.32 239.919 33.904C240.655 33.552 241.311 33.44 241.887 33.568C242.463 33.664 242.911 33.92 243.231 34.336C243.551 34.752 243.727 35.232 243.759 35.776C243.823 36.32 243.711 36.864 243.423 37.408C243.135 37.92 242.655 38.352 241.983 38.704C240.895 39.312 239.663 39.76 238.287 40.048C236.943 40.368 235.631 40.528 234.351 40.528Z" fill="#142F4D"/>
</svg>
