<svg width="118" height="32" viewBox="0 0 118 32" fill="none" xmlns="http://www.w3.org/2000/svg">
<path d="M24.3613 18.992C23.7342 19.8322 23.1508 20.7043 22.6134 21.6048C21.4297 20.1764 20.7122 18.4178 20.5581 16.5669C20.9626 17.2379 21.5164 17.806 22.1761 18.2267C22.8359 18.6474 23.5838 18.9094 24.3613 18.992Z" fill="#3BDAFF"/>
<path d="M32.4534 24.4617C31.5427 24.7658 30.5887 24.9192 29.6289 24.9159C28.6272 24.9174 27.6322 24.7528 26.6841 24.4287C26.5974 24.3965 26.5056 24.3722 26.4164 24.3314C25.5622 24.0083 24.7619 23.5566 24.0432 22.992C24.7361 21.8567 25.4914 20.7041 26.277 19.7139C26.2848 19.8007 26.2848 19.8876 26.2926 19.9658L26.3168 20.2168C26.3369 20.3832 26.3659 20.5485 26.4034 20.7119C26.4502 20.9129 26.5095 21.1107 26.581 21.3043C26.6083 21.4056 26.6464 21.5038 26.6944 21.597C26.7187 21.6613 26.743 21.7186 26.7672 21.7707C26.8244 21.8767 26.8729 21.974 26.9292 22.0713C27.0084 22.2111 27.0952 22.3465 27.189 22.4769C27.2691 22.6025 27.3586 22.7219 27.4566 22.8339C27.5634 22.9687 27.6792 23.0961 27.8031 23.2152C28.7482 24.142 30.0177 24.6605 31.3395 24.6597C31.4608 24.6597 31.5742 24.6597 31.6955 24.6519H31.7033C31.9597 24.5989 32.2109 24.532 32.4534 24.4617Z" fill="#3BDAFF"/>
<path d="M18.1836 4.30235H12.7989V22.054C12.7989 23.0749 12.5717 23.8329 12.1172 24.3281C11.6628 24.8232 11.0767 25.0707 10.359 25.0707C9.6268 25.0707 9.03119 24.8205 8.57213 24.3202C8.11308 23.8199 7.88211 23.0645 7.87923 22.054V4.30235H2.4936C1.65056 4.30235 1.02464 4.11589 0.615823 3.74297C0.207008 3.37005 0.00173227 2.87784 0 2.26634C0 1.63399 0.213359 1.13397 0.640075 0.766257C1.06679 0.398547 1.68463 0.21556 2.4936 0.217297H18.1836C19.0371 0.217297 19.6722 0.406073 20.0891 0.783627C20.506 1.16118 20.7139 1.65542 20.7127 2.26634C20.7127 2.87841 20.502 3.37062 20.0805 3.74297C19.6589 4.11531 19.0267 4.30177 18.1836 4.30235Z" fill="#3BDAFF"/>
<path d="M46.5191 9.4018L50.1924 19.7382L54.148 8.9536C54.4581 8.08499 54.763 7.47118 55.0627 7.11216C55.3623 6.75313 55.8165 6.57246 56.4251 6.57014C56.6969 6.5645 56.9671 6.61321 57.2199 6.71343C57.4727 6.81365 57.703 6.96337 57.8975 7.15385C58.3017 7.54182 58.5038 7.99147 58.5038 8.50279C58.4983 8.74017 58.4619 8.97581 58.3955 9.20376C58.3276 9.45845 58.2443 9.70877 58.1461 9.95336C58.0517 10.1879 57.9443 10.4537 57.8222 10.7533L53.4672 21.5857C53.3443 21.8967 53.186 22.2913 52.9926 22.7696C52.8237 23.2015 52.6064 23.6127 52.3447 23.9952C52.1171 24.3244 51.8153 24.5952 51.4639 24.7857C51.0705 24.9857 50.6333 25.0837 50.1924 25.0706C49.5497 25.0706 49.0373 24.9229 48.655 24.6276C48.3057 24.372 48.0163 24.043 47.8071 23.6634C47.624 23.3125 47.3165 22.6205 46.8846 21.5875L42.5635 10.8689C42.4636 10.6025 42.3611 10.3356 42.256 10.068C42.1505 9.80167 42.0617 9.52897 41.9901 9.25153C41.9244 9.01783 41.888 8.77681 41.8818 8.53406C41.8871 8.20533 41.9853 7.88485 42.1651 7.60987C42.3589 7.29879 42.6267 7.0409 42.9446 6.85939C43.2718 6.66637 43.645 6.56582 44.0247 6.56841C44.7753 6.56841 45.2932 6.78527 45.5785 7.21899C45.8637 7.65272 46.1773 8.38032 46.5191 9.4018Z" fill="#3BDAFF"/>
<path d="M64.4058 6.96801H64.9047V4.23537C64.9047 3.50111 64.9243 2.92552 64.9636 2.50859C64.9901 2.13091 65.1008 1.76402 65.2875 1.43499C65.4705 1.11816 65.7346 0.856075 66.0523 0.675829C66.3903 0.479684 66.7749 0.37884 67.1653 0.383976C67.7427 0.383976 68.2624 0.600549 68.7244 1.03369C69.0291 1.3141 69.2359 1.6853 69.3142 2.09252C69.4008 2.50859 69.4389 3.10184 69.4389 3.86795V6.96801H71.101C71.7437 6.96801 72.2345 7.12088 72.5735 7.42663C72.739 7.57329 72.8702 7.75469 72.9579 7.95795C73.0457 8.16121 73.0877 8.38134 73.081 8.60272C73.081 9.21306 72.84 9.64042 72.3578 9.88479C71.8757 10.1292 71.1859 10.2516 70.2886 10.2522H69.4407V18.6186C69.4327 19.1668 69.4575 19.7151 69.5151 20.2603C69.5486 20.6058 69.6881 20.9323 69.9144 21.1949C70.1304 21.4329 70.482 21.5522 70.9694 21.5528C71.3334 21.5408 71.6954 21.4934 72.0503 21.4112C72.3995 21.3299 72.7557 21.2825 73.1139 21.2696C73.3 21.2716 73.4836 21.3118 73.6536 21.3876C73.8236 21.4635 73.9762 21.5735 74.1022 21.7109C74.2462 21.853 74.3596 22.0232 74.4354 22.211C74.5112 22.3988 74.5479 22.6001 74.5431 22.8027C74.5431 23.5364 74.1441 24.0975 73.3461 24.486C72.5481 24.8746 71.4016 25.0695 69.9066 25.0706C68.4879 25.0706 67.413 24.8315 66.682 24.3531C65.9686 23.8997 65.4544 23.1905 65.2442 22.3701C65.0162 21.5247 64.9024 20.3955 64.903 18.9826V10.2522H64.3045C63.6514 10.2522 63.1528 10.0964 62.8087 9.7849C62.642 9.63754 62.5095 9.45532 62.4206 9.25107C62.3317 9.04682 62.2886 8.82551 62.2942 8.60272C62.2888 8.3784 62.3346 8.15581 62.4281 7.95197C62.5216 7.74812 62.6604 7.56843 62.8338 7.42663C63.1941 7.12204 63.7181 6.96917 64.4058 6.96801Z" fill="#3BDAFF"/>
<path d="M80.7089 18.5021V22.3031C80.7089 23.225 80.493 23.9167 80.0611 24.3782C79.8518 24.6047 79.5968 24.7839 79.313 24.9037C79.0292 25.0235 78.7232 25.0813 78.4154 25.0731C78.112 25.0814 77.8105 25.0229 77.532 24.9018C77.2535 24.7807 77.0049 24.5999 76.8035 24.3722C76.3826 23.906 76.1721 23.2172 76.1721 22.3057V9.63453C76.1721 7.59042 76.9089 6.56836 78.3825 6.56836C79.136 6.56836 79.6788 6.80752 80.0108 7.28583C80.3429 7.76414 80.5259 8.46945 80.56 9.40175C81.1022 8.46829 81.6588 7.76298 82.2299 7.28583C82.8009 6.80867 83.5629 6.56952 84.5156 6.56836C85.4845 6.57303 86.4371 6.8196 87.2872 7.28583C88.1845 7.76298 88.6332 8.39619 88.6332 9.18547C88.6408 9.44239 88.5935 9.69796 88.4946 9.93509C88.3957 10.1722 88.2475 10.3854 88.0598 10.5605C87.6776 10.9212 87.2647 11.1016 86.8212 11.1016C86.655 11.1016 86.2534 10.9988 85.6165 10.7933C85.0733 10.6049 84.5046 10.5012 83.9301 10.4858C83.2649 10.4858 82.7215 10.6595 82.3 11.0069C81.8785 11.3544 81.552 11.8738 81.3204 12.5652C81.0654 13.3634 80.9035 14.1886 80.838 15.0242C80.7525 15.9774 80.7095 17.1367 80.7089 18.5021Z" fill="#3BDAFF"/>
<path d="M95.003 7.25398C94.7926 7.02944 94.5372 6.85219 94.2535 6.73391C93.9699 6.61563 93.6644 6.55901 93.3573 6.56778C92.6887 6.56778 92.1447 6.79796 91.7351 7.25398C91.3254 7.70999 91.1123 8.38316 91.1123 9.28478V22.3017C91.1123 23.192 91.3167 23.8782 91.7351 24.3542C92.1534 24.8302 92.6878 25.0699 93.3573 25.0699C93.6657 25.0782 93.9722 25.0199 94.2562 24.8989C94.5401 24.778 94.7948 24.5973 95.003 24.369C95.4361 23.9034 95.6509 23.2129 95.6509 22.3017V9.15188C95.6509 8.33886 95.4369 7.70913 95.003 7.25398Z" fill="#3BDAFF"/>
<path d="M95.6507 2.21856C95.6507 2.91953 95.4315 3.46675 94.9872 3.8611C94.5534 4.25125 93.9882 4.46173 93.4056 4.45001C92.8131 4.46312 92.2368 4.25511 91.7886 3.86631C91.339 3.47717 91.1147 2.92995 91.1147 2.21596C91.1069 1.916 91.1649 1.61799 91.2846 1.343C91.4044 1.06802 91.5829 0.822789 91.8076 0.624676C92.2415 0.217129 92.8155 -0.00661503 93.41 0.000149011C93.9822 -0.00390719 94.5373 0.195511 94.9768 0.563004C95.4263 0.944321 95.6507 1.49762 95.6507 2.21856Z" fill="#FF0020"/>
<path d="M104.527 9.1189V9.66873C105.38 8.61367 106.266 7.83887 107.186 7.34434C108.106 6.84982 109.147 6.60227 110.311 6.60169C111.672 6.59173 113.009 6.96749 114.167 7.6857C115.34 8.40838 116.268 9.46374 116.95 10.8518C117.632 12.2398 117.973 13.8844 117.973 15.7855C117.986 17.0954 117.787 18.3989 117.383 19.6447C116.988 20.8173 116.448 21.8017 115.762 22.5979C115.093 23.3789 114.262 24.0043 113.328 24.4307C112.38 24.8609 111.351 25.0802 110.311 25.0734C109.014 25.0734 107.926 24.8129 107.045 24.2917C106.163 23.7705 105.324 23.0036 104.527 21.9908V28.8258C104.527 30.8254 103.801 31.8254 102.349 31.826C101.495 31.826 100.93 31.5677 100.654 31.0512C100.378 30.5347 100.24 29.7819 100.239 28.7928V9.16233C100.239 8.29373 100.427 7.64662 100.803 7.221C101.18 6.79539 101.695 6.58142 102.349 6.5791C102.991 6.5791 103.515 6.79857 103.92 7.23751C104.324 7.67644 104.527 8.30357 104.527 9.1189ZM113.418 15.7359C113.418 14.5355 113.236 13.5048 112.87 12.6437C112.505 11.7826 111.998 11.1216 111.35 10.6607C110.725 10.2056 109.971 9.96226 109.198 9.96579C107.945 9.96579 106.89 10.4603 106.032 11.4494C105.174 12.4384 104.744 13.8939 104.743 15.8159C104.743 17.6283 105.17 19.0369 106.023 20.0416C106.877 21.0463 107.935 21.5492 109.198 21.5504C109.947 21.5516 110.678 21.3221 111.292 20.8928C111.934 20.4545 112.45 19.7958 112.838 18.9168C113.227 18.0377 113.42 16.9775 113.418 15.7359Z" fill="#3BDAFF"/>
<path d="M24.3618 18.992C23.7347 19.8322 23.1513 20.7043 22.6139 21.6048C21.4302 20.1764 20.7127 18.4178 20.5586 16.5669C20.9631 17.2379 21.5168 17.806 22.1766 18.2267C22.8364 18.6474 23.5843 18.9094 24.3618 18.992Z" fill="#3BDAFF"/>
<path d="M32.4541 24.4617C31.5434 24.7658 30.5895 24.9192 29.6296 24.9159C28.628 24.9174 27.6329 24.7528 26.6848 24.4287C26.5982 24.3965 26.5064 24.3722 26.4172 24.3314C25.5629 24.0083 24.7627 23.5566 24.0439 22.992C24.7369 21.8567 25.4921 20.7041 26.2777 19.7139C26.2855 19.8007 26.2855 19.8876 26.2933 19.9658L26.3175 20.2168C26.3377 20.3832 26.3666 20.5485 26.4042 20.7119C26.451 20.9129 26.5103 21.1107 26.5817 21.3043C26.6091 21.4056 26.6471 21.5038 26.6952 21.597C26.7194 21.6613 26.7437 21.7186 26.7679 21.7707C26.8251 21.8767 26.8736 21.974 26.9299 22.0713C27.0091 22.2111 27.0959 22.3465 27.1897 22.4769C27.2698 22.6025 27.3593 22.7219 27.4574 22.8339C27.5642 22.9687 27.6799 23.0961 27.8038 23.2152C28.7489 24.142 30.0184 24.6605 31.3403 24.6597C31.4615 24.6597 31.575 24.6597 31.6962 24.6519H31.704C31.9604 24.5989 32.2116 24.532 32.4541 24.4617Z" fill="#3BDAFF"/>
<path d="M34.7198 8.2146C34.6463 8.15869 34.5677 8.10983 34.4851 8.06867C33.0975 7.18833 31.4979 6.70156 29.8564 6.66011C28.215 6.61867 26.593 7.02409 25.1629 7.83328C25.0763 7.88279 24.9897 7.93143 24.9031 7.98007C23.5656 8.79379 22.46 9.93975 21.6931 11.3072C20.9263 12.6747 20.5242 14.2174 20.5256 15.7862C20.5256 16.0468 20.5334 16.3074 20.5577 16.568C20.962 17.2393 21.5157 17.8077 22.1754 18.2288C22.8352 18.6498 23.5832 18.912 24.3609 18.9949C25.531 17.3975 26.7791 15.9304 28.2905 14.6458C28.5573 14.4188 28.8281 14.1973 29.103 13.9813C29.705 13.5217 30.3319 13.0957 30.9807 12.7053C31.4658 12.4048 31.9673 12.0721 32.5181 11.8853C32.872 11.7794 33.2419 11.7382 33.6103 11.7637C33.8286 11.788 34.201 11.9374 33.9741 12.2102C32.9876 13.3871 32.3484 13.9552 31.846 14.5146C31.5595 14.8113 31.3099 15.1417 31.1029 15.4987C31.0457 15.6125 30.9409 15.7011 30.9574 15.8314L31.6607 20.3482C31.67 20.3985 31.6676 20.4504 31.6536 20.4996C31.6397 20.5489 31.6145 20.5943 31.5801 20.6322L30.8196 21.46C30.7807 21.4988 30.7327 21.5272 30.6801 21.5429C30.6274 21.5585 30.5717 21.5608 30.518 21.5495C30.4642 21.5382 30.4141 21.5137 30.3722 21.4782C30.3302 21.4428 30.2976 21.3974 30.2774 21.3462L28.999 17.6051C28.9341 17.4427 28.7314 17.3211 28.5781 17.4183C28.2107 17.6645 27.8691 17.9474 27.5586 18.2626C27.0996 18.7143 26.6748 19.1997 26.288 19.7149C26.288 19.8018 26.288 19.8887 26.2958 19.9668L26.3201 20.2179C26.3402 20.3843 26.3691 20.5496 26.4067 20.713C26.4535 20.9139 26.5128 21.1118 26.5842 21.3054C26.6116 21.4067 26.6496 21.5048 26.6977 21.5981C26.722 21.6623 26.7462 21.7197 26.7705 21.7718C26.8276 21.8778 26.8761 21.975 26.9324 22.0723C27.0117 22.2122 27.0984 22.3476 27.1923 22.478C27.2743 22.6022 27.3636 22.7215 27.4599 22.835C27.5667 22.9698 27.6824 23.0971 27.8064 23.2163C28.7515 24.143 30.021 24.6616 31.3428 24.6608C31.464 24.6608 31.5775 24.6608 31.7066 24.653C31.9577 24.5956 32.2089 24.5314 32.4514 24.4584C32.6532 24.3932 32.8481 24.3281 33.0421 24.2473C33.0879 24.2395 33.1317 24.223 33.1712 24.1987C34.6818 23.5575 35.9918 22.5193 36.9629 21.1935C37.934 19.8677 38.5302 18.3036 38.6885 16.6663C38.8469 15.029 38.5615 13.3791 37.8625 11.891C37.1635 10.4028 36.0769 9.13142 34.7172 8.21112L34.7198 8.2146ZM26.5141 15.5508L23.0184 14.8038C22.9571 14.7917 22.9007 14.7619 22.856 14.7182C22.8113 14.6745 22.7802 14.6187 22.7665 14.5576C22.7529 14.4965 22.7572 14.4327 22.779 14.3741C22.8008 14.3154 22.8391 14.2643 22.8893 14.2271L23.7555 13.5861C23.8171 13.5436 23.8914 13.5236 23.9659 13.5296L28.4612 13.8145C27.7925 14.3695 27.1377 14.9428 26.5141 15.5508Z" fill="url(#paint0_linear_40000777_51334)"/>
<defs>
<linearGradient id="paint0_linear_40000777_51334" x1="20.5265" y1="15.6603" x2="38.7335" y2="15.6603" gradientUnits="userSpaceOnUse">
<stop stop-color="#0B9BFF"/>
<stop offset="0.23" stop-color="#18ACFF"/>
<stop offset="0.73" stop-color="#31CDFF"/>
<stop offset="1" stop-color="#3BDAFF"/>
</linearGradient>
</defs>
</svg>
